{
  "accessors": [
    {
      "bufferView": 2,
      "componentType": 5126,
      "count": 515,
      "max": [
        1.9053399562835693,
        3.3834571838378906,
        1.5465179681777954
      ],
      "min": [
        -1.9053399562835693,
        -3.3834571838378906,
        -1.5465178489685059
      ],
      "type": "VEC3"
    },
    {
      "bufferView": 2,
      "byteOffset": 6180,
      "componentType": 5126,
      "count": 515,
      "max": [
        0.9996801614761353,
        0.9971825480461121,
        0.9994803071022034
      ],
      "min": [
        -0.9996827244758606,
        -0.9968723058700562,
        -0.9998713731765747
      ],
      "type": "VEC3"
    },
    {
      "bufferView": 1,
      "componentType": 5126,
      "count": 515,
      "max": [
        0.9034910202026367,
        0.9897329807281494
      ],
      "min": [
        0.022586999461054802,
        0.02874702215194702
      ],
      "type": "VEC2"
    },
    {
      "bufferView": 0,
      "componentType": 5125,
      "count": 1719,
      "type": "SCALAR"
    }
  ],
  "asset": {
    "extras": {
      "author": "Air Fantasia (https://sketchfab.com/Secondary)",
      "license": "CC-BY-4.0 (http://creativecommons.org/licenses/by/4.0/)",
      "source": "https://sketchfab.com/3d-models/yaris-c497b789eb0649ae95d3b0f8588b1e3f",
      "title": "Yaris"
    },
    "generator": "Sketchfab-16.45.0",
    "version": "2.0"
  },
  "bufferViews": [
    {
      "buffer": 0,
      "byteLength": 6876,
      "name": "floatBufferViews",
      "target": 34963
    },
    {
      "buffer": 0,
      "byteLength": 4120,
      "byteOffset": 6876,
      "byteStride": 8,
      "name": "floatBufferViews",
      "target": 34962
    },
    {
      "buffer": 0,
      "byteLength": 12360,
      "byteOffset": 10996,
      "byteStride": 12,
      "name": "floatBufferViews",
      "target": 34962
    }
  ],
  "buffers": [
    {
      "byteLength": 23356,
      "uri": "yaris_scene.bin"
    }
  ],
  "images": [
    {
      "uri": "textures/material_0_baseColor.png"
    }
  ],
  "materials": [
    {
      "doubleSided": true,
      "name": "material_0",
      "pbrMetallicRoughness": {
        "baseColorTexture": {
          "index": 0
        },
        "metallicFactor": 0.0,
        "roughnessFactor": 0.6
      }
    }
  ],
  "meshes": [
    {
      "name": "Object_0",
      "primitives": [
        {
          "attributes": {
            "NORMAL": 1,
            "POSITION": 0,
            "TEXCOORD_0": 2
          },
          "indices": 3,
          "material": 0,
          "mode": 4
        }
      ]
    }
  ],
  "nodes": [
    {
      "children": [
        1
      ],
      "matrix": [
        1.0,
        0.0,
        0.0,
        0.0,
        0.0,
        2.220446049250313e-16,
        -1.0,
        0.0,
        0.0,
        1.0,
        2.220446049250313e-16,
        0.0,
        0.0,
        0.0,
        0.0,
        1.0
      ],
      "name": "Sketchfab_model"
    },
    {
      "children": [
        2
      ],
      "name": "db62a98de59a4144a83411f26db1009d.obj.cleaner.materialmerger.gles"
    },
    {
      "mesh": 0,
      "name": "Object_2"
    }
  ],
  "samplers": [
    {
      "magFilter": 9729,
      "minFilter": 9987,
      "wrapS": 10497,
      "wrapT": 10497
    }
  ],
  "scene": 0,
  "scenes": [
    {
      "name": "Sketchfab_Scene",
      "nodes": [
        0
      ]
    }
  ],
  "textures": [
    {
      "sampler": 0,
      "source": 0
    }
  ]
}
